#!OML:ASF F:\VICON\USERDATA\INSTALL\rory3\rory3.ASF
:FULLY-SPECIFIED
:DEGREES
1875
root -3.22001 14.7808 -12.0633 -366.852 -14.2148 366.631
lowerback 21.9702 2.33393 -10.8333
upperback 0.236438 0.322191 0.201241
thorax -12.2139 0.805656 6.33477
lowerneck -14.239 -2.65595 -1.82657
upperneck 19.602 -3.74425 2.13616
head 8.53073 -1.69054 0.589291
rclavicle 1.54058e-014 -3.97569e-015
rhumerus 14.4233 40.7902 -67.0775
rradius 93.3291
rwrist -15.2822
rhand -6.88321 22.0959
rfingers 7.12502
rthumb 18.9831 -6.99776
lclavicle 1.54058e-014 -3.97569e-015
lhumerus 30.1033 -5.77582 65.1126
lradius 58.5395
lwrist 37.9868
lhand -3.13983 18.1657
lfingers 7.12502
lthumb 22.5798 46.8652
rfemur -24.7436 -25.6119 27.5296
rtibia 58.9941
rfoot -44.4983 -12.3819
rtoes 34.8441
lfemur -31.776 0.132791 -3.9274
ltibia 37.7948
lfoot -9.05899 18.0866
ltoes 32.1136
1876
root -3.23173 14.7707 -12.0843 -366.507 -14.3406 365.77
lowerback 22.1899 2.32268 -10.2773
upperback 0.0736002 0.454018 0.501471
thorax -12.5479 0.870242 6.31974
lowerneck -14.1964 -2.65881 -1.85274
upperneck 19.6462 -3.74267 2.12905
head 8.53828 -1.69268 0.591787
rclavicle -3.64024e-014 2.26615e-014
rhumerus 13.668 40.9186 -67.6605
rradius 93.3735
rwrist -15.8887
rhand -7.04578 23.5856
rfingers 7.12502
rthumb 18.8268 -5.52331
lclavicle -3.64024e-014 2.26615e-014
lhumerus 29.7625 -6.22011 65.0667
lradius 59.5545
lwrist 38.1077
lhand -2.91235 18.2861
lfingers 7.12502
lthumb 22.7981 46.9588
rfemur -24.9033 -25.282 28.7489
rtibia 58.7211
rfoot -44.4802 -12.8972
rtoes 34.6762
lfemur -32.5736 -0.15716 -3.09473
ltibia 37.6427
lfoot -8.72878 18.165
ltoes 30.9865
1877
root -3.23941 14.7528 -12.105 -366.407 -14.1748 365.192
lowerback 22.5514 2.24969 -9.89414
upperback 0.0140938 0.438209 0.693184
thorax -12.8145 0.863815 6.32876
lowerneck -14.1388 -2.71058 -1.74961
upperneck 19.5907 -3.80484 1.97885
head 8.5051 -1.73075 0.518097
rclavicle 3.77691e-015 -4.41302e-014
rhumerus 13.1239 41.0611 -68.1436
rradius 93.7732
rwrist -15.6406
rhand -7.01311 22.8074
rfingers 7.12502
rthumb 18.8582 -6.29846
lclavicle 3.77691e-015 -4.41302e-014
lhumerus 29.564 -6.41783 65.116
lradius 60.4311
lwrist 38.2113
lhand -2.18597 18.3109
lfingers 7.12502
lthumb 23.495 46.8962
rfemur -24.9003 -25.236 29.5056
rtibia 58.5315
rfoot -44.6661 -13.3293
rtoes 34.0859
lfemur -33.3213 -0.575794 -2.6727
ltibia 37.6266
lfoot -9.16763 17.6603
ltoes 31.9382
1878
root -3.24392 14.7402 -12.1079 -366.472 -14.0894 365.04
lowerback 22.6243 2.24275 -9.74078
upperback 0.0148121 0.47001 0.756676
thorax -12.859 0.873696 6.30372
lowerneck -14.3731 -2.69225 -1.68198
upperneck 19.7502 -3.7849 1.92733
head 8.59891 -1.71849 0.488151
rclavicle 9.44227e-016 1.70955e-014
rhumerus 12.4325 41.2719 -68.4861
rradius 93.8844
rwrist -15.9252
rhand -7.55288 23.2433
rfingers 7.12502
rthumb 18.339 -5.9122
lclavicle 9.44227e-016 1.70955e-014
lhumerus 29.3947 -6.79315 65.0336
lradius 61.1731
lwrist 38.0666
lhand -1.84628 17.8926
lfingers 7.12502
lthumb 23.8208 46.4357
rfemur -24.81 -25.3433 29.641
rtibia 58.5673
rfoot -44.7004 -13.1869
rtoes 34.2104
lfemur -33.7138 -0.670508 -2.85176
ltibia 37.2848
lfoot -8.98482 17.7292
ltoes 29.8081
1879
root -3.25106 14.7411 -12.1016 -366.471 -13.9438 365.03
lowerback 22.523 2.20069 -9.70494
upperback -0.0597584 0.438775 0.804516
thorax -12.8835 0.863684 6.34832
lowerneck -14.2654 -2.66759 -1.8503
upperneck 19.9142 -3.721 1.94293
head 8.63738 -1.69962 0.52942
rclavicle -1.69215e-014 1.19271e-015
rhumerus 11.5083 41.4772 -69.0834
rradius 93.879
rwrist -15.689
rhand -7.79987 23.7772
rfingers 7.12502
rthumb 18.1014 -5.40054
lclavicle -1.69215e-014 1.19271e-015
lhumerus 29.7112 -6.93203 65.4224
lradius 61.5854
lwrist 37.0865
lhand -1.36962 18.5323
lfingers 7.12502
lthumb 24.2779 47.0151
rfemur -24.8043 -25.5495 29.6355
rtibia 58.5977
rfoot -44.7016 -13.4418
rtoes 33.8633
lfemur -33.9048 -1.17799 -3.08612
ltibia 36.6855
lfoot -9.83195 17.74
ltoes 30.6036
1880
root -3.26071 14.7372 -12.1103 -366.537 -13.6947 365.112
lowerback 22.6821 2.19376 -9.80175
upperback -0.120057 0.380175 0.781519
thorax -13.0349 0.852603 6.39903
lowerneck -14.1183 -2.75668 -2.05438
upperneck 19.9591 -3.85268 2.17586
head 8.63779 -1.75384 0.627862
rclavicle 7.90169e-015 9.54166e-015
rhumerus 10.8795 41.4936 -69.6465
rradius 94.1055
rwrist -15.426
rhand -7.41976 23.0949
rfingers 7.12502
rthumb 18.4671 -6.04853
lclavicle 7.90169e-015 9.54166e-015
lhumerus 29.4574 -7.24058 65.5492
lradius 62.7761
lwrist 36.7951
lhand -2.04118 18.026
lfingers 7.12502
lthumb 23.6339 46.5934
rfemur -24.7441 -25.8347 29.5085
rtibia 58.6109
rfoot -44.0661 -14.4259
rtoes 31.733
lfemur -34.1159 -1.86373 -3.30228
ltibia 36.1324
lfoot -10.4892 17.798
ltoes 31.7893
1881
root -3.27142 14.7417 -12.1111 -366.573 -13.6118 365.048
lowerback 22.6009 2.1937 -9.75276
upperback -0.0877599 0.405729 0.794692
thorax -12.955 0.856202 6.37647
lowerneck -14.1353 -2.73419 -2.16353
upperneck 20.0749 -3.82659 2.29967
head 8.68455 -1.73606 0.690102
rclavicle -1.98288e-014 7.55382e-015
rhumerus 10.3939 41.5321 -70.1253
rradius 94.1932
rwrist -15.3234
rhand -7.14237 23.1769
rfingers 7.12502
rthumb 18.7339 -5.94097
lclavicle -1.98288e-014 7.55382e-015
lhumerus 28.8788 -7.95822 65.003
lradius 63.6254
lwrist 37.5402
lhand -1.31514 17.4518
lfingers 7.12502
lthumb 24.3301 45.9275
rfemur -24.5992 -26.0072 29.5617
rtibia 58.4609
rfoot -44.0238 -14.4968
rtoes 31.6016
lfemur -34.2489 -2.36097 -3.40535
ltibia 35.5611
lfoot -9.89272 18.3484
ltoes 30.9538
1882
root -3.27551 14.7303 -12.1166 -366.642 -13.5522 364.968
lowerback 22.6406 2.2043 -9.70224
upperback -0.0628064 0.43146 0.806754
thorax -12.9522 0.864074 6.35287
lowerneck -14.476 -2.76965 -1.92343
upperneck 20.2291 -3.90169 2.16782
head 8.79349 -1.76257 0.591947
rclavicle -1.07841e-014 -9.93923e-015
rhumerus 9.86889 41.6889 -70.6302
rradius 94.2625
rwrist -15.7052
rhand -7.63499 23.3695
rfingers 7.12502
rthumb 18.26 -5.79346
lclavicle -1.07841e-014 -9.93923e-015
lhumerus 28.6539 -8.21688 64.979
lradius 64.5022
lwrist 37.3553
lhand -2.59136 16.799
lfingers 7.12502
lthumb 23.1061 45.4335
rfemur -24.5489 -26.022 29.626
rtibia 58.5471
rfoot -44.0593 -13.997
rtoes 32.7886
lfemur -34.4956 -3.04887 -3.32584
ltibia 35.1637
lfoot -10.8405 18.2542
ltoes 32.0516
1883
root -3.28067 14.718 -12.1204 -366.68 -13.4258 364.798
lowerback 22.5651 2.11779 -9.57188
upperback -0.0643608 0.368762 0.86873
thorax -12.8982 0.827001 6.36978
lowerneck -14.1722 -2.77066 -1.9325
upperneck 20.0858 -3.87878 2.0645
head 8.6864 -1.76734 0.565909
rclavicle -3.47873e-015 -1.07344e-014
rhumerus 9.11934 41.8444 -71.2379
rradius 94.3524
rwrist -15.5784
rhand -7.33442 23.6558
rfingers 7.12502
rthumb 18.5492 -5.47977
lclavicle -3.47873e-015 -1.07344e-014
lhumerus 28.5502 -8.33244 65.1043
lradius 65.1839
lwrist 36.7892
lhand -2.12569 17.2201
lfingers 7.12502
lthumb 23.5528 45.7979
rfemur -24.5339 -26.1412 29.8123
rtibia 58.5679
rfoot -44.124 -14.6428
rtoes 31.5875
lfemur -34.7078 -3.47345 -3.22647
ltibia 34.6967
lfoot -11.6048 18.0664
ltoes 33.9133
1884
root -3.28924 14.7205 -12.1154 -366.831 -13.4304 364.825
lowerback 22.3684 2.15303 -9.55597
upperback 0.0270465 0.441044 0.837247
thorax -12.6925 0.843406 6.29764
lowerneck -13.9711 -2.96966 -1.87544
upperneck 19.8265 -4.14041 1.95933
head 8.56366 -1.90051 0.494571
rclavicle 1.33186e-014 1.66979e-014
rhumerus 8.36438 41.6907 -71.8295
rradius 94.3349
rwrist -15.9429
rhand -6.92161 24.6853
rfingers 7.12502
rthumb 18.9462 -4.41192
lclavicle 1.33186e-014 1.66979e-014
lhumerus 28.2788 -8.66633 65.1102
lradius 66.1534
lwrist 36.6129
lhand -1.77903 17.4319
lfingers 7.12502
lthumb 23.8853 45.9666
rfemur -24.2184 -26.1466 29.6895
rtibia 58.4283
rfoot -44.0257 -14.2689
rtoes 32.713
lfemur -34.6741 -4.19013 -3.28786
ltibia 34.1757
lfoot -11.7977 18.3598
ltoes 32.6992
1885
root -3.29818 14.7221 -12.1161 -366.884 -13.3877 364.482
lowerback 22.2491 2.05061 -9.21893
upperback 0.102352 0.421115 0.920616
thorax -12.5288 0.805301 6.20437
lowerneck -13.9889 -2.96122 -1.73565
upperneck 19.8675 -4.11581 1.74957
head 8.57236 -1.89991 0.403469
rclavicle 1.95057e-014 -5.56597e-015
rhumerus 7.77758 41.8487 -72.362
rradius 94.5014
rwrist -15.4784
rhand -6.96911 24.115
rfingers 7.12502
rthumb 18.9005 -4.98673
lclavicle 1.95057e-014 -5.56597e-015
lhumerus 27.7552 -8.78936 65.1423
lradius 66.7765
lwrist 36.6215
lhand -1.77947 16.7216
lfingers 7.12502
lthumb 23.8849 45.2564
rfemur -23.9028 -26.2818 29.9924
rtibia 58.1858
rfoot -44.0351 -14.1794
rtoes 32.7871
lfemur -34.8026 -4.65115 -3.01098
ltibia 33.989
lfoot -11.2681 18.4892
ltoes 30.4824
1886
root -3.30126 14.7205 -12.1153 -366.968 -13.2533 364.488
lowerback 22.0932 1.97935 -9.14648
upperback 0.130112 0.358742 0.883175
thorax -12.3959 0.762744 6.13815
lowerneck -13.5595 -2.93638 -2.20269
upperneck 19.7076 -4.05783 2.11535
head 8.45743 -1.87475 0.616987
rclavicle -1.18774e-014 -1.90833e-014
rhumerus 7.21579 42.0153 -72.8737
rradius 94.4225
rwrist -16.4704
rhand -6.63607 25.05
rfingers 7.12502
rthumb 19.2208 -4.02016
lclavicle -1.18774e-014 -1.90833e-014
lhumerus 27.8588 -9.01257 65.081
lradius 67.3115
lwrist 36.9768
lhand -1.29444 17.4228
lfingers 7.12502
lthumb 24.35 45.8959
rfemur -23.7753 -26.5506 29.8869
rtibia 58.1557
rfoot -44.0457 -13.8066
rtoes 33.4657
lfemur -34.9409 -5.14948 -3.13252
ltibia 33.5991
lfoot -10.7385 18.7736
ltoes 28.6593
